<?xml version="1.0" standalone="no"?>
<!DOCTYPE svg PUBLIC "-//W3C//DTD SVG 20010904//EN"
 "http://www.w3.org/TR/2001/REC-SVG-20010904/DTD/svg10.dtd">
<svg version="1.0" xmlns="http://www.w3.org/2000/svg"
 width="1280.000000pt" height="1280.000000pt" viewBox="0 0 1280.000000 1280.000000"
 preserveAspectRatio="xMidYMid meet">
<metadata>
Created by potrace 1.14, written by Peter Selinger 2001-2017
</metadata>
<g transform="translate(0.000000,1280.000000) scale(0.100000,-0.100000)"
fill="#000000" stroke="none">
<path d="M6004 12786 c-73 -17 -148 -48 -231 -97 -52 -30 -75 -37 -140 -42
-123 -10 -178 -31 -238 -90 -43 -43 -57 -67 -83 -142 -53 -150 -44 -141 -179
-164 -126 -20 -225 -93 -309 -228 -54 -87 -56 -88 -199 -38 -198 69 -307 44
-454 -104 -44 -43 -89 -82 -99 -85 -11 -4 -53 2 -93 14 -41 11 -92 20 -114 20
-110 0 -228 -63 -295 -158 -83 -115 -105 -234 -72 -387 l19 -90 12 55 c7 30
19 104 27 164 23 169 76 251 204 316 93 48 209 26 300 -56 24 -22 45 -34 47
-28 12 37 111 169 158 212 60 55 142 92 204 92 44 0 130 -24 184 -52 66 -33
77 -64 77 -213 0 -82 6 -150 15 -185 20 -75 76 -186 121 -238 20 -24 35 -44
33 -46 -126 -96 -149 -119 -186 -188 -51 -94 -84 -118 -167 -118 -41 0 -80 8
-119 25 -51 20 -58 21 -53 7 3 -9 24 -71 47 -137 34 -97 43 -137 47 -210 l5
-89 -39 33 c-201 168 -273 212 -387 235 -114 24 -242 -8 -392 -97 l-60 -35
-32 67 c-39 81 -99 152 -159 187 l-43 26 38 51 c39 52 65 99 95 170 l16 39
-28 -30 c-15 -16 -41 -36 -58 -45 -17 -9 -53 -45 -80 -81 -52 -69 -87 -93
-174 -121 -80 -25 -203 -91 -252 -135 -94 -83 -142 -212 -154 -415 -4 -63 -12
-121 -18 -129 -6 -7 -48 -25 -93 -39 -138 -44 -200 -96 -223 -188 -21 -82 20
-197 105 -298 40 -49 43 -65 14 -106 -77 -113 -104 -207 -103 -350 1 -95 5
-122 31 -197 17 -48 28 -90 25 -93 -3 -3 -14 -5 -24 -5 -33 0 -142 -56 -177
-91 -103 -102 -96 -277 19 -470 23 -39 40 -72 38 -73 -1 -1 -23 -9 -48 -17
-92 -29 -176 -122 -187 -208 -5 -33 1 -54 26 -105 43 -88 91 -130 168 -145 50
-9 67 -18 92 -47 17 -19 33 -47 37 -62 3 -15 8 -33 10 -41 9 -29 25 -110 695
-3626 220 -1155 407 -2121 415 -2147 22 -69 75 -110 182 -142 188 -58 749
-241 950 -310 222 -78 191 -76 1365 -76 l1037 0 643 201 c353 110 653 208 667
218 14 10 34 32 46 49 23 33 17 4 264 1267 154 788 214 1095 290 1478 27 138
124 632 215 1097 159 811 205 1039 295 1455 82 374 130 676 130 805 0 72 -20
133 -94 295 -64 140 -71 184 -45 292 31 132 28 267 -12 488 -30 160 -33 200
-34 365 l0 185 -34 65 c-18 36 -72 117 -119 181 -109 148 -158 229 -179 297
-21 67 -63 105 -140 127 -105 30 -119 63 -88 205 19 85 19 229 0 308 -55 231
-256 412 -510 457 -148 27 -139 16 -146 185 -3 80 -11 165 -18 190 -37 130
-126 240 -234 291 -88 41 -162 52 -294 46 l-113 -5 0 116 c0 130 -17 228 -53
305 -36 78 -108 167 -174 216 -228 169 -449 170 -672 2 -30 -23 -60 -41 -66
-41 -6 0 -44 34 -85 75 -88 89 -140 125 -235 160 -86 33 -211 41 -301 21z
m217 -76 c125 -24 256 -115 305 -212 41 -82 29 -169 -44 -315 l-32 -62 58 -6
c235 -26 408 -105 504 -232 71 -93 139 -277 125 -334 -5 -20 -21 -32 -69 -53
-98 -43 -142 -44 -208 -7 -30 18 -98 53 -150 79 l-95 47 -105 -1 c-95 0 -112
-3 -178 -32 -41 -17 -100 -47 -132 -67 -32 -19 -60 -35 -62 -35 -3 0 -16 27
-29 61 -58 146 -159 219 -315 227 -83 4 -86 5 -105 36 -24 40 -24 43 7 69 121
101 174 171 206 271 16 48 19 78 14 141 -6 87 -20 134 -66 225 -47 93 -41 119
34 157 96 49 220 65 337 43z m904 -105 c188 -49 332 -202 380 -402 13 -55 16
-98 13 -175 -6 -120 -18 -151 -94 -259 -56 -80 -114 -197 -114 -230 0 -28 -43
-45 -75 -31 -20 9 -25 19 -25 49 0 51 -35 185 -64 249 -50 108 -142 207 -261
281 -70 44 -121 63 -188 73 -32 5 -65 14 -73 21 -18 15 -18 97 0 168 20 74 56
124 123 169 142 96 248 120 378 87z m-1424 -48 c93 -49 157 -187 146 -315 -7
-89 -21 -131 -60 -189 -28 -40 -48 -55 -121 -92 -112 -55 -121 -71 -104 -196
23 -168 -35 -338 -156 -461 -81 -82 -114 -92 -244 -70 -201 34 -317 148 -359
351 -13 67 -14 92 -4 156 20 132 80 255 169 346 76 78 175 108 292 91 75 -12
90 -2 90 56 0 129 81 282 175 330 45 24 124 20 176 -7z m2179 -693 c71 -21
116 -51 176 -117 105 -115 148 -272 114 -421 -30 -134 -94 -190 -215 -189
-124 2 -203 41 -357 176 -48 42 -115 95 -149 118 l-61 41 4 48 c7 68 59 172
117 233 102 108 241 150 371 111z m-1999 -185 c47 -16 95 -54 124 -97 23 -35
57 -149 70 -234 3 -21 11 -38 16 -38 6 0 43 33 83 73 84 87 178 138 286 158
62 11 80 10 144 -5 276 -65 444 -354 386 -667 -26 -140 -143 -301 -265 -365
-157 -82 -311 -69 -481 41 -91 59 -111 58 -165 -6 -46 -55 -104 -88 -155 -89
-51 0 -128 28 -156 57 -58 63 -44 103 77 233 140 150 189 240 190 347 0 72
-18 99 -77 112 -46 11 -166 -10 -206 -35 -102 -65 -127 -77 -166 -81 -53 -6
-100 14 -150 64 l-35 36 67 72 c84 90 115 150 158 310 11 40 28 71 49 92 31
31 37 33 103 33 38 0 84 -5 103 -11z m1417 -264 c34 -8 81 -24 104 -36 58 -30
141 -111 187 -183 57 -90 58 -91 178 -91 92 0 106 -2 119 -19 23 -31 16 -88
-20 -182 -41 -107 -61 -222 -52 -301 21 -199 23 -178 -17 -218 -41 -41 -79
-46 -105 -13 -52 65 -203 180 -291 221 -58 27 -78 31 -192 36 -105 5 -131 9
-148 25 -33 30 -35 74 -9 167 18 66 23 108 23 194 -1 119 -14 176 -67 294 -16
35 -25 68 -21 72 7 7 67 24 148 42 41 9 102 6 163 -8z m-2093 -259 c81 -17
157 -53 232 -110 108 -82 154 -81 267 5 124 93 187 109 237 60 58 -58 38 -111
-90 -246 -103 -108 -141 -161 -186 -258 -30 -65 -64 -189 -80 -288 -13 -82
-80 -139 -165 -139 -34 0 -71 13 -160 57 -111 56 -118 58 -195 58 -72 0 -87
-4 -152 -37 -40 -20 -73 -35 -73 -33 0 1 9 31 20 65 30 93 27 110 -31 185 -62
81 -105 171 -120 249 -36 196 94 381 306 432 66 16 117 16 190 0z m3330 -36
c78 -37 168 -117 214 -189 76 -118 111 -278 91 -416 -29 -206 -119 -336 -288
-416 -48 -23 -93 -44 -101 -48 -32 -16 -35 -37 -11 -92 49 -115 36 -272 -32
-374 -138 -208 -417 -164 -531 83 -26 58 -30 79 -31 152 -1 125 19 173 111
272 72 77 75 82 70 119 -3 25 -20 59 -45 92 -57 73 -84 159 -90 286 -13 275
112 484 333 558 26 8 75 12 140 10 89 -3 108 -7 170 -37z m-5169 -296 c90 -42
133 -119 155 -278 l12 -86 71 68 c215 209 403 237 621 91 107 -72 167 -152
204 -273 26 -86 29 -257 5 -349 -43 -167 -156 -293 -321 -359 l-41 -17 -10 27
c-26 68 -32 99 -32 158 0 53 6 73 36 131 20 37 44 82 52 98 23 43 20 157 -5
215 -32 72 -98 147 -153 175 -97 49 -224 24 -275 -54 -13 -20 -31 -70 -41
-111 -27 -124 -65 -182 -159 -245 -31 -20 -71 -59 -92 -90 -21 -30 -41 -53
-44 -52 -3 1 -26 27 -51 57 -61 76 -146 120 -231 120 -76 0 -139 29 -172 79
-90 136 -86 333 11 498 44 76 131 160 198 193 83 40 182 42 262 4z m1249 -99
c15 -14 25 -36 25 -53 0 -16 16 -61 36 -98 115 -217 109 -201 109 -292 0 -71
3 -86 19 -98 30 -22 71 -17 148 17 123 54 143 33 135 -145 -8 -196 -52 -318
-163 -447 -81 -95 -81 -103 -4 -207 48 -66 65 -138 56 -235 -12 -125 -51 -177
-134 -177 -33 0 -73 -13 -145 -46 -92 -43 -103 -46 -156 -41 l-57 6 -17 -67
c-46 -175 -177 -299 -329 -310 -131 -9 -240 41 -369 168 -119 117 -179 237
-153 304 4 9 46 44 95 77 129 89 224 200 302 354 34 68 67 99 156 145 195 102
305 239 347 430 12 59 14 105 9 210 -4 100 -2 165 10 250 11 75 14 139 10 183
-10 96 18 125 70 72z m2477 -160 c29 -14 63 -25 75 -25 21 0 19 -5 -24 -62
-25 -35 -56 -71 -67 -80 -43 -36 -116 -13 -157 48 -29 45 -24 81 16 121 31 31
39 34 70 29 19 -4 59 -18 87 -31z m-860 -106 c100 -61 151 -74 283 -73 108 0
127 3 190 28 39 16 86 29 105 30 31 1 38 -4 66 -47 40 -61 81 -184 90 -268 15
-147 -57 -339 -171 -455 -99 -101 -219 -143 -370 -130 -56 5 -82 14 -135 45
-144 84 -210 81 -344 -17 -40 -29 -59 -37 -91 -36 -76 2 -151 60 -192 151 -20
44 -23 65 -22 143 3 111 -8 127 -92 139 -70 10 -92 22 -128 75 -31 44 -31 56
-1 56 42 0 125 34 160 66 49 44 70 89 82 178 5 39 15 77 22 84 15 15 25 13
151 -32 39 -14 88 -26 111 -26 52 0 128 38 166 84 36 44 56 45 120 5z m1212
11 c76 -29 127 -73 205 -177 l68 -90 57 58 c31 33 65 59 76 59 25 0 80 -74 80
-108 0 -13 -16 -51 -35 -83 -75 -122 -125 -267 -125 -357 0 -100 51 -204 132
-277 45 -39 166 -107 231 -128 34 -12 15 -130 -31 -180 -27 -30 -82 -54 -142
-62 -119 -14 -176 -48 -245 -143 -45 -62 -60 -72 -104 -72 -28 0 -53 14 -115
67 -51 43 -89 43 -147 1 -57 -41 -128 -68 -182 -68 -141 0 -272 124 -253 241
16 101 93 211 178 253 45 23 65 26 150 26 61 0 111 5 131 14 37 15 79 60 107
116 l19 37 -65 18 c-129 35 -248 139 -313 275 -36 74 -36 76 -36 205 0 126 1
132 33 200 47 99 110 161 192 186 43 13 77 10 134 -11z m-3492 -124 c56 -39
108 -157 108 -244 0 -57 -22 -100 -69 -137 -44 -34 -71 -73 -71 -103 0 -10 12
-55 26 -98 37 -113 37 -218 0 -295 -26 -56 -99 -149 -117 -149 -4 0 -24 24
-44 53 -19 28 -65 83 -102 120 -54 54 -88 78 -161 113 -110 53 -120 68 -103
156 17 82 36 123 83 174 32 35 55 48 107 64 101 31 96 23 96 153 0 109 1 115
28 150 32 42 58 58 107 67 40 7 79 -1 112 -24z m5014 -155 c83 -38 164 -136
164 -199 0 -34 -36 -48 -163 -66 -150 -21 -204 -45 -292 -129 -38 -37 -71 -64
-73 -62 -21 21 -72 157 -72 193 0 39 5 48 63 105 35 35 95 82 133 106 38 25
78 50 89 57 29 19 104 16 151 -5z m-3718 -36 c12 -9 40 -47 62 -84 47 -81 111
-141 177 -166 27 -10 53 -22 59 -26 6 -5 14 -37 17 -72 7 -77 45 -184 82 -232
34 -46 88 -81 147 -97 65 -17 140 -1 241 52 43 22 88 40 99 40 10 0 52 -13 91
-29 139 -57 177 -66 282 -66 92 0 105 3 169 33 38 18 104 57 147 87 43 30 82
55 86 55 12 0 70 -110 78 -147 10 -47 -10 -97 -62 -156 -61 -68 -71 -96 -76
-217 -5 -125 -23 -175 -92 -249 -49 -53 -134 -95 -172 -85 -11 3 -32 32 -51
72 -49 103 -128 201 -199 249 -110 73 -224 79 -393 22 -106 -36 -123 -36 -147
-1 -27 43 -116 118 -176 149 -44 24 -64 28 -132 27 -66 0 -89 -5 -131 -26 -68
-35 -155 -111 -174 -151 -8 -18 -22 -32 -30 -32 -21 0 -25 51 -6 80 9 13 16
27 16 30 0 4 -36 44 -79 89 -64 67 -82 93 -95 136 -23 77 -21 90 25 154 95
132 159 333 159 498 0 37 5 50 22 62 28 20 28 20 56 1z m-2483 -44 c22 -10 60
-40 85 -66 65 -68 84 -75 187 -73 81 2 93 0 136 -25 70 -41 96 -94 110 -221 7
-58 17 -110 23 -116 6 -6 41 -19 79 -30 108 -31 173 -67 245 -139 86 -85 114
-137 107 -205 -4 -42 -10 -55 -44 -87 -34 -31 -51 -39 -114 -49 -106 -18 -212
7 -405 96 -6 3 -29 -33 -52 -79 -73 -148 -159 -219 -283 -233 -151 -17 -265
79 -313 263 -42 161 10 323 149 467 30 32 55 60 55 62 0 2 -31 19 -68 38 -126
63 -178 152 -156 264 9 43 69 111 118 133 52 23 91 23 141 0z m4306 -296 c18
-36 55 -93 81 -125 47 -58 163 -150 188 -150 8 0 11 -3 8 -6 -9 -9 -178 -44
-212 -44 -48 0 -95 35 -119 88 -28 62 -30 186 -4 255 10 26 20 47 22 47 1 0
18 -29 36 -65z m2092 22 c104 -47 200 -168 233 -291 34 -126 10 -252 -76 -396
-30 -51 -50 -97 -50 -115 0 -16 15 -54 34 -85 19 -31 38 -68 41 -82 15 -58
-45 -168 -90 -168 -14 0 -45 15 -69 34 -82 62 -245 80 -356 37 -30 -12 -58
-21 -61 -21 -3 0 -25 29 -48 65 -62 95 -125 135 -212 135 -22 0 -39 4 -39 9 0
18 79 79 111 86 18 4 63 10 100 14 l68 6 -44 75 c-109 181 -123 318 -50 485
29 65 95 148 145 182 105 69 251 81 363 30z m-673 -346 c0 -28 -9 -50 -33 -82
-84 -109 -92 -179 -31 -268 32 -47 30 -62 -11 -124 -19 -28 -35 -58 -35 -65 0
-7 -43 30 -95 83 -86 87 -95 100 -95 134 0 60 73 157 164 216 14 10 35 33 47
54 26 42 69 91 81 91 4 0 8 -17 8 -39z m75 -237 c23 -69 26 -90 17 -110 -21
-44 -51 -27 -91 53 -11 23 -21 51 -21 62 0 20 45 81 60 81 5 0 20 -38 35 -86z
m-2980 -38 c74 -34 130 -89 182 -178 25 -43 49 -78 52 -78 4 0 27 20 51 46 71
71 130 105 198 111 244 22 465 -258 465 -587 -1 -174 -39 -259 -166 -373 -61
-55 -83 -83 -111 -140 -19 -40 -37 -80 -40 -90 -5 -17 -10 -16 -46 13 -98 77
-176 192 -225 330 -43 124 -110 220 -188 273 -76 51 -131 26 -184 -85 -44 -91
-52 -96 -115 -67 -69 32 -136 101 -180 185 -57 110 -72 173 -72 304 0 136 20
200 85 274 85 97 177 116 294 62z m-2332 -140 c25 -19 21 -41 -26 -136 -52
-105 -77 -125 -155 -123 -32 1 -68 6 -81 11 -24 9 -24 9 11 30 46 28 125 114
167 180 34 53 52 62 84 38z m4906 -36 c20 -10 50 -33 68 -52 30 -31 83 -130
83 -155 0 -25 21 -23 80 7 121 61 190 48 250 -47 37 -58 41 -132 10 -192 -28
-55 -104 -118 -163 -136 -72 -21 -114 -8 -171 56 -25 28 -46 56 -46 61 0 5
-28 -16 -62 -47 -138 -123 -253 -150 -381 -87 -79 39 -119 86 -137 163 -29
118 24 278 120 368 86 80 255 110 349 61z m-4692 -82 c44 -42 59 -93 45 -148
-10 -40 -9 -44 23 -86 62 -80 60 -167 -8 -345 -31 -83 -60 -138 -100 -194 -36
-49 -59 -92 -63 -116 -4 -22 -10 -39 -15 -39 -12 0 -35 47 -54 114 -10 36 -30
73 -50 95 -33 36 -34 36 -122 37 -91 1 -131 14 -165 51 -77 85 -58 264 36 351
59 55 163 84 227 64 19 -6 47 -13 63 -17 27 -6 28 -5 23 27 -3 18 -11 56 -18
83 -11 44 -10 55 6 89 38 80 110 94 172 34z m1574 -75 c52 -28 82 -60 115
-123 14 -26 18 -58 19 -125 0 -76 -4 -97 -24 -135 -26 -48 -112 -138 -161
-166 -16 -10 -30 -21 -30 -24 0 -3 31 -30 70 -59 92 -71 191 -176 218 -234 37
-78 29 -126 -39 -222 -15 -22 -38 -74 -50 -115 -41 -143 -71 -167 -192 -157
-97 8 -233 48 -334 97 -100 49 -187 131 -258 243 -28 43 -80 125 -117 181 -75
114 -82 145 -46 192 29 37 36 43 138 113 95 65 154 125 177 180 8 20 21 74 29
120 8 50 23 100 38 125 74 127 309 184 447 109z m1962 -5 c63 -28 83 -32 157
-32 73 0 97 5 167 33 53 22 90 31 106 27 31 -7 64 -51 116 -153 60 -117 82
-187 88 -278 10 -139 -28 -239 -156 -419 -39 -55 -71 -109 -71 -121 0 -12 15
-39 33 -61 59 -69 87 -144 87 -234 0 -68 -18 -96 -70 -110 -36 -10 -648 -11
-971 -2 l-125 3 4 90 c4 73 1 100 -16 147 -65 183 -51 202 156 202 l114 0 -32
37 c-81 92 -89 182 -27 311 35 71 35 74 30 170 -9 151 19 200 186 326 99 74
130 95 144 96 5 0 41 -14 80 -32z m2456 -47 c14 -93 2 -185 -34 -266 l-22 -50
-19 38 c-16 33 -17 44 -6 100 27 134 57 257 63 257 4 0 12 -36 18 -79z m-6952
28 c37 -14 67 -42 118 -111 l42 -57 34 36 c19 19 46 41 61 49 56 29 168 7 168
-34 0 -9 -14 -37 -30 -60 -92 -136 -92 -253 -1 -386 24 -34 31 -56 31 -91 0
-52 -14 -84 -78 -174 -76 -107 -149 -125 -269 -66 -84 41 -114 43 -168 10 -67
-42 -135 -29 -189 35 -33 40 -33 70 1 131 36 67 74 89 154 89 74 0 118 21 149
72 25 41 23 47 -22 63 -161 55 -236 196 -198 372 14 62 44 100 95 118 49 17
66 18 102 4z m6548 -144 c65 -20 151 -77 175 -118 28 -45 27 -157 -1 -233 -31
-82 -68 -116 -179 -160 -123 -50 -171 -96 -219 -211 -19 -46 -39 -83 -44 -83
-5 0 -25 14 -44 30 -55 48 -98 41 -144 -26 -47 -69 -132 -77 -220 -19 -51 33
-69 78 -69 170 0 71 -2 79 -29 105 -16 16 -41 32 -57 35 -63 13 -114 44 -131
80 -16 34 -16 35 12 75 57 83 117 97 229 55 43 -16 87 -25 125 -25 104 0 160
36 248 161 63 91 116 136 187 161 63 21 97 22 161 3z m-5245 -154 c41 -17 83
-40 93 -52 42 -52 0 -205 -63 -227 -27 -10 -44 -7 -117 18 -48 17 -97 30 -111
30 -23 0 -24 1 -9 18 37 40 69 133 74 213 l6 80 26 -25 c14 -14 60 -39 101
-55z m650 -4 c0 -45 -16 -64 -73 -85 -57 -22 -194 -151 -234 -221 -49 -85 -59
-92 -133 -90 -36 2 -75 -1 -87 -5 -21 -7 -22 -5 -17 31 14 100 35 147 87 199
42 42 65 56 122 73 38 12 96 25 128 28 48 5 69 14 125 54 37 27 70 48 75 49 4
0 7 -15 7 -33z m1306 -103 c36 -24 70 -87 108 -202 19 -56 49 -129 67 -162 43
-81 142 -186 243 -259 45 -33 88 -72 96 -87 18 -33 19 -133 2 -166 -26 -48
-23 -48 -538 -48 -453 -1 -488 1 -506 17 -30 27 -20 100 27 198 53 110 132
188 250 248 138 69 143 80 109 227 -10 44 -15 98 -12 138 4 56 8 68 32 88 32
28 85 32 122 8z m3683 -69 c41 -36 55 -83 47 -169 -6 -70 -6 -72 29 -120 57
-81 69 -150 36 -221 -22 -49 -63 -91 -116 -117 -45 -24 -212 -56 -327 -65 -71
-5 -81 -3 -123 21 -96 57 -132 183 -81 284 28 55 83 114 129 139 37 21 173 23
221 4 16 -6 31 -10 33 -8 2 3 -3 24 -11 48 -23 66 -21 150 5 183 41 52 110 61
158 21z m-1616 -20 c104 -37 185 -85 251 -145 71 -66 112 -127 155 -237 38
-95 84 -153 144 -182 64 -31 117 -27 205 15 62 30 83 35 122 32 26 -3 59 -13
74 -24 36 -26 130 -154 119 -163 -7 -7 -515 -92 -733 -123 -47 -7 -188 -13
-313 -13 l-229 0 -25 30 c-24 27 -25 34 -19 96 5 59 3 74 -18 116 -54 106 -45
161 54 365 39 79 70 157 74 184 11 82 30 89 139 49z m-4078 -155 c16 -10 49
-39 73 -64 50 -53 89 -66 170 -59 74 7 123 -9 175 -56 58 -52 77 -104 77 -212
0 -102 4 -107 100 -129 77 -18 161 -62 212 -112 l43 -43 -265 -3 c-267 -3
-419 6 -560 34 -103 21 -210 54 -210 65 0 23 32 67 74 102 25 21 46 42 46 47
0 6 -26 23 -59 39 -79 40 -115 72 -140 126 -26 56 -27 124 -1 174 23 45 82 98
125 111 40 12 102 3 140 -20z m1797 -47 c3 -22 -1 -50 -9 -65 -16 -33 -80 -68
-124 -68 -65 0 -139 55 -164 120 -11 31 34 45 145 42 58 -1 112 2 120 7 20 14
27 6 32 -36z m-2357 3 c13 -13 27 -41 30 -62 15 -86 113 -198 221 -254 36 -18
73 -44 81 -57 14 -21 14 -28 -2 -69 -20 -52 -62 -84 -111 -84 -17 0 -73 9
-125 19 -52 11 -179 29 -284 41 -104 12 -210 26 -235 31 -25 5 -83 17 -130 27
l-85 18 0 44 0 45 100 0 c90 0 107 4 158 29 67 32 97 66 153 173 49 95 85 123
156 123 38 0 54 -5 73 -24z m-422 -496 c52 -25 63 -61 136 -426 39 -192 129
-639 201 -994 72 -355 162 -800 200 -990 38 -190 128 -635 200 -990 72 -355
166 -823 210 -1040 44 -217 125 -620 180 -894 60 -297 99 -509 95 -524 -6 -23
-9 -24 -60 -18 -123 14 -226 79 -278 175 -49 90 -66 154 -122 461 -20 107 -49
267 -66 355 -16 88 -34 183 -39 210 -5 28 -23 124 -40 215 -17 91 -35 188 -40
215 -5 28 -15 84 -23 125 -9 41 -25 127 -37 190 -11 63 -29 158 -40 210 -10
52 -28 147 -40 210 -11 63 -30 158 -40 210 -10 52 -33 169 -50 260 -17 91 -35
185 -40 210 -5 25 -28 142 -50 260 -23 118 -50 258 -60 310 -10 52 -33 169
-50 260 -17 91 -40 208 -50 260 -10 52 -33 169 -50 260 -17 91 -40 208 -50
260 -10 52 -37 192 -60 310 -22 118 -45 235 -50 260 -9 42 -38 197 -60 320 -5
30 -19 100 -31 155 -35 170 -35 173 -8 185 32 13 177 6 212 -10z m6762 -12
c-3 -13 -37 -185 -76 -383 -39 -198 -106 -538 -149 -755 -43 -217 -133 -672
-200 -1010 -67 -338 -152 -770 -190 -960 -38 -190 -92 -464 -120 -610 -28
-146 -64 -330 -80 -410 -33 -168 -96 -492 -140 -730 -17 -91 -39 -210 -49
-265 -11 -55 -29 -152 -40 -215 -50 -266 -70 -330 -127 -407 -43 -57 -182
-123 -259 -123 l-32 0 -12 73 c-11 70 -10 79 18 181 17 60 34 138 37 175 5 48
14 78 35 110 43 66 67 139 84 258 19 133 41 240 156 776 16 78 39 183 49 232
52 242 83 387 111 518 16 78 39 183 49 232 48 225 82 386 111 518 16 78 34
162 39 187 5 25 23 110 40 190 17 80 35 165 40 190 5 25 23 110 40 190 17 80
35 165 40 190 5 25 27 133 50 240 22 107 45 215 50 240 5 25 23 110 40 190 17
80 40 188 50 240 10 52 33 160 50 240 17 80 35 165 40 190 73 363 91 427 132
466 40 38 58 45 128 54 94 12 91 12 85 -12z m-1069 -175 c-3 -10 -42 -272 -86
-583 -45 -311 -95 -655 -111 -765 -33 -224 -59 -403 -89 -610 -30 -207 -25
-197 -66 -130 -53 89 -121 180 -183 248 -31 34 -62 70 -69 79 -11 14 -1 92 63
475 42 252 101 608 131 790 30 183 61 348 69 367 35 83 96 122 215 136 115 13
132 12 126 -7z m-4577 -21 c48 -35 45 -24 111 -437 65 -403 119 -734 161 -992
l33 -202 -110 -114 c-60 -62 -110 -113 -112 -112 -3 3 -20 129 -72 540 -22
171 -48 378 -60 460 -23 169 -78 594 -87 670 -3 28 -12 74 -20 102 -8 29 -12
62 -8 72 13 42 114 50 164 13z m618 -13 c20 -6 37 -22 46 -42 10 -20 27 -145
46 -342 17 -170 45 -432 61 -580 17 -149 30 -285 30 -302 0 -30 -5 -35 -62
-64 -89 -45 -232 -133 -301 -186 -33 -24 -61 -42 -64 -39 -10 9 -243 1430
-243 1479 0 83 4 84 246 85 121 1 222 -3 241 -9z m2026 -25 l38 -25 -7 -72
c-4 -47 -13 -79 -24 -92 -43 -50 -44 -51 -70 -605 -6 -124 -13 -230 -15 -236
-2 -8 -33 -7 -107 4 -115 16 -535 22 -689 9 l-97 -7 -6 132 c-4 73 -12 205
-18 293 -16 248 -16 588 1 608 12 15 58 17 485 17 l471 0 38 -26z m1533 9 c-3
-10 -10 -45 -15 -78 -19 -116 -135 -795 -206 -1210 -26 -148 -49 -289 -52
-312 l-6 -42 -31 25 c-84 69 -198 150 -287 205 -54 34 -96 66 -94 72 3 7 14
77 25 157 27 190 60 393 121 730 74 411 75 418 117 450 23 18 41 20 229 20
190 0 204 -1 199 -17z m-1661 -1123 c451 -68 837 -217 1165 -448 136 -96 349
-311 433 -438 527 -797 52 -1713 -1073 -2072 -309 -99 -616 -139 -985 -129
-292 8 -496 37 -748 108 -719 202 -1243 650 -1393 1191 -35 126 -44 351 -20
481 94 498 514 925 1145 1163 180 68 455 132 656 154 61 6 119 13 130 15 11 2
139 2 285 0 207 -3 296 -8 405 -25z m1524 -2492 c-7 -54 -45 -315 -99 -678
-17 -113 -44 -299 -61 -415 -17 -115 -34 -235 -39 -265 -48 -314 -66 -440 -91
-645 -13 -112 -18 -126 -62 -173 -25 -26 -56 -40 -157 -72 -188 -59 -227 -66
-251 -44 -11 10 -19 30 -19 48 0 29 28 202 119 739 136 791 201 1178 201 1183
0 2 33 25 73 51 112 72 218 155 309 243 46 43 83 79 84 80 0 0 -3 -24 -7 -52z
m-3657 -109 c35 -28 119 -88 187 -134 l125 -82 77 -464 c43 -255 116 -693 163
-974 47 -280 86 -520 86 -533 0 -22 -3 -24 -37 -18 -70 13 -228 55 -265 70
-53 23 -103 70 -121 115 -25 62 -45 176 -87 516 -23 176 -58 460 -80 630 -22
171 -55 436 -74 590 -20 154 -37 292 -39 308 -2 15 -2 27 0 27 1 0 31 -23 65
-51z m506 -308 c59 -27 136 -59 172 -71 36 -13 68 -26 72 -29 8 -7 19 -88 37
-261 12 -118 42 -393 66 -610 15 -137 21 -190 45 -390 6 -47 15 -123 20 -170
5 -47 15 -123 20 -170 6 -47 13 -115 17 -152 6 -65 5 -68 -18 -76 -33 -12
-179 -4 -196 10 -24 20 -31 41 -47 144 -37 230 -294 1777 -300 1807 -2 9 -2
17 0 17 3 0 53 -22 112 -49z m2586 -83 c-13 -73 -44 -254 -69 -403 -57 -333
-109 -640 -175 -1027 -27 -164 -50 -311 -50 -327 0 -89 -41 -105 -247 -99
-152 5 -179 14 -169 52 6 20 20 108 72 426 13 85 33 209 44 275 33 204 78 484
99 620 59 368 69 427 77 434 5 4 45 20 89 35 89 31 305 123 320 137 28 27 30
4 9 -123z m-1098 -288 c-3 -63 -11 -187 -16 -275 -19 -313 -30 -503 -40 -690
-6 -104 -16 -224 -21 -265 -6 -41 -13 -128 -16 -193 -7 -150 0 -145 -188 -145
-77 0 -148 2 -158 4 -39 12 -49 59 -58 274 -5 113 -13 315 -19 450 -5 135 -14
355 -20 490 -5 135 -13 295 -16 356 l-7 110 283 0 283 -1 -7 -115z"/>
<path d="M9298 2115 c-44 -16 -115 -63 -143 -95 l-20 -23 43 7 c24 3 62 16 84
27 123 63 297 8 359 -114 24 -45 48 -167 49 -240 l0 -48 59 69 c98 114 202
178 328 202 158 31 344 -59 447 -215 60 -90 87 -175 93 -292 9 -159 -28 -283
-117 -395 -174 -219 -418 -244 -668 -68 -66 47 -82 46 -113 -9 -26 -46 -65
-71 -113 -71 -54 0 -76 27 -76 94 0 96 -47 192 -122 246 -23 17 -86 44 -142
61 -128 40 -164 58 -208 107 -51 56 -62 98 -55 211 5 93 17 137 71 263 14 33
14 38 0 52 -31 32 -50 19 -83 -55 -47 -106 -61 -171 -61 -290 0 -125 -6 -134
-95 -149 -79 -13 -138 -44 -184 -97 -50 -57 -64 -99 -59 -179 3 -52 9 -71 36
-106 49 -64 82 -138 82 -184 0 -27 -13 -68 -40 -124 -54 -110 -68 -200 -51
-318 24 -165 103 -288 224 -345 162 -76 305 -27 460 161 76 93 90 97 171 61
26 -11 87 -25 135 -32 176 -22 298 24 354 133 53 102 24 192 -102 323 -36 38
-78 75 -93 83 -32 17 -36 44 -10 67 25 23 31 22 114 -22 98 -53 166 -71 263
-71 147 0 270 53 381 164 237 237 243 649 11 901 -31 35 -78 77 -104 94 -148
98 -362 94 -576 -13 l-88 -44 -31 61 c-43 86 -137 178 -211 205 -66 25 -143
27 -199 7z m-372 -811 c19 -9 48 -33 65 -53 59 -67 92 -81 197 -81 106 0 154
-18 195 -72 45 -60 51 -80 49 -162 -2 -105 12 -130 80 -151 28 -8 56 -15 62
-15 34 0 145 -67 202 -121 104 -101 138 -195 94 -267 -27 -45 -71 -69 -152
-83 -92 -17 -177 -1 -284 53 -108 55 -125 50 -166 -39 -34 -76 -122 -174 -182
-205 -94 -48 -217 -30 -301 44 -84 74 -121 181 -113 334 7 126 48 216 148 318
l70 72 -80 38 c-44 21 -91 52 -105 68 -23 27 -55 113 -55 147 0 66 58 148 124
177 42 18 111 17 152 -2z"/>
</g>
</svg>
